<svg width="1024" height="394" viewBox="0 0 1024 394" fill="none" xmlns="http://www.w3.org/2000/svg">
<path d="M1010.29 327.116V52.613C1010.29 31.1359 992.889 13.7251 971.429 13.7251H52.5714C31.1112 13.7251 13.7143 31.1359 13.7143 52.613V327.116C13.7143 348.593 31.1112 366.004 52.5714 366.004H153.143C156.93 366.004 160 369.076 160 372.866C160 376.656 156.93 379.729 153.143 379.729H52.5714C23.537 379.729 0 356.173 0 327.116V52.613C0 23.5557 23.537 0 52.5714 0H971.429C1000.46 0 1024 23.5557 1024 52.613V327.116C1024 356.173 1000.46 379.729 971.429 379.729H876.571C872.784 379.729 869.714 376.656 869.714 372.866C869.714 369.076 872.784 366.004 876.571 366.004H971.429C992.889 366.004 1010.29 348.593 1010.29 327.116Z" fill="white"/>
<path d="M206.675 368.499H195.688C195.61 367.589 195.403 366.764 195.065 366.023C194.74 365.282 194.286 364.646 193.701 364.113C193.13 363.567 192.435 363.151 191.617 362.865C190.799 362.566 189.87 362.417 188.831 362.417C187.013 362.417 185.474 362.858 184.214 363.742C182.968 364.626 182.019 365.893 181.37 367.544C180.734 369.195 180.416 371.177 180.416 373.49C180.416 375.934 180.74 377.981 181.39 379.631C182.052 381.269 183.007 382.504 184.253 383.336C185.5 384.155 187 384.564 188.753 384.564C189.753 384.564 190.649 384.44 191.442 384.194C192.234 383.934 192.922 383.563 193.507 383.082C194.091 382.601 194.565 382.023 194.929 381.347C195.305 380.658 195.558 379.885 195.688 379.027L206.675 379.105C206.545 380.795 206.071 382.517 205.253 384.272C204.435 386.013 203.273 387.625 201.766 389.107C200.273 390.575 198.422 391.758 196.214 392.655C194.007 393.552 191.442 394 188.52 394C184.857 394 181.571 393.214 178.662 391.641C175.766 390.068 173.474 387.755 171.786 384.7C170.11 381.646 169.273 377.909 169.273 373.49C169.273 369.045 170.13 365.302 171.844 362.261C173.558 359.206 175.87 356.899 178.779 355.34C181.688 353.767 184.935 352.981 188.52 352.981C191.039 352.981 193.357 353.325 195.474 354.014C197.591 354.703 199.448 355.71 201.045 357.036C202.643 358.348 203.929 359.967 204.903 361.89C205.877 363.814 206.468 366.017 206.675 368.499Z" fill="white"/>
<path d="M211.589 393.454V353.526H222.42V384.72H238.55V393.454H211.589Z" fill="white"/>
<path d="M253.292 393.454H241.604L254.773 353.526H269.578L282.747 393.454H271.058L262.331 364.522H262.02L253.292 393.454ZM251.11 377.701H273.084V385.812H251.11V377.701Z" fill="white"/>
<path d="M286.589 393.454V353.526H303.81C306.771 353.526 309.362 354.066 311.583 355.145C313.804 356.223 315.531 357.777 316.765 359.804C317.998 361.832 318.615 364.262 318.615 367.096C318.615 369.955 317.979 372.366 316.706 374.329C315.446 376.291 313.674 377.773 311.388 378.774C309.115 379.774 306.459 380.275 303.42 380.275H293.135V371.853H301.239C302.511 371.853 303.596 371.697 304.492 371.385C305.401 371.06 306.096 370.546 306.576 369.845C307.07 369.143 307.317 368.226 307.317 367.096C307.317 365.952 307.07 365.023 306.576 364.308C306.096 363.58 305.401 363.047 304.492 362.709C303.596 362.358 302.511 362.183 301.239 362.183H297.42V393.454H286.589ZM309.966 375.128L319.94 393.454H308.174L298.433 375.128H309.966Z" fill="white"/>
<path d="M334.063 353.526V393.454H323.232V353.526H334.063Z" fill="white"/>
<path d="M338.106 362.261V353.526H372.781V362.261H360.781V393.454H350.106V362.261H338.106Z" fill="white"/>
<path d="M375.221 353.526H387.299L395.091 369.747H395.403L403.195 353.526H415.273L400.623 380.899V393.454H389.87V380.899L375.221 353.526Z" fill="white"/>
<path d="M440.563 353.526V393.454H429.732V353.526H440.563Z" fill="white"/>
<path d="M480.216 353.526V393.454H471.177L456.761 372.476H456.528V393.454H445.696V353.526H454.891L469.073 374.426H469.385V353.526H480.216Z" fill="white"/>
<path d="M496.268 393.454V353.526H525.021V362.261H507.099V369.123H523.541V377.857H507.099V384.72H524.943V393.454H496.268Z" fill="white"/>
<path d="M541.302 353.526L549.484 381.679H549.796L557.977 353.526H570.211L557.042 393.454H542.237L529.068 353.526H541.302Z" fill="white"/>
<path d="M574.054 393.454V353.526H602.807V362.261H584.885V369.123H601.326V377.857H584.885V384.72H602.729V393.454H574.054Z" fill="white"/>
<path d="M608.179 393.454V353.526H625.399C628.36 353.526 630.951 354.066 633.172 355.145C635.393 356.223 637.12 357.777 638.354 359.804C639.588 361.832 640.205 364.262 640.205 367.096C640.205 369.955 639.568 372.366 638.296 374.329C637.036 376.291 635.263 377.773 632.977 378.774C630.705 379.774 628.049 380.275 625.01 380.275H614.724V371.853H622.828C624.101 371.853 625.185 371.697 626.081 371.385C626.99 371.06 627.685 370.546 628.166 369.845C628.659 369.143 628.906 368.226 628.906 367.096C628.906 365.952 628.659 365.023 628.166 364.308C627.685 363.58 626.99 363.047 626.081 362.709C625.185 362.358 624.101 362.183 622.828 362.183H619.01V393.454H608.179ZM631.555 375.128L641.529 393.454H629.763L620.023 375.128H631.555Z" fill="white"/>
<path d="M641.31 353.526H653.388L661.18 369.747H661.492L669.284 353.526H681.362L666.713 380.899V393.454H655.959V380.899L641.31 353.526Z" fill="white"/>
<path d="M733.068 368.499H722.081C722.003 367.589 721.795 366.764 721.458 366.023C721.133 365.282 720.679 364.646 720.094 364.113C719.523 363.567 718.828 363.151 718.01 362.865C717.192 362.566 716.263 362.417 715.224 362.417C713.406 362.417 711.867 362.858 710.607 363.742C709.36 364.626 708.412 365.893 707.763 367.544C707.127 369.195 706.808 371.177 706.808 373.49C706.808 375.934 707.133 377.981 707.783 379.631C708.445 381.269 709.399 382.504 710.646 383.336C711.893 384.155 713.393 384.564 715.146 384.564C716.146 384.564 717.042 384.44 717.834 384.194C718.627 383.934 719.315 383.563 719.899 383.082C720.484 382.601 720.958 382.023 721.321 381.347C721.698 380.658 721.951 379.885 722.081 379.027L733.068 379.105C732.938 380.795 732.464 382.517 731.646 384.272C730.828 386.013 729.666 387.625 728.159 389.107C726.666 390.575 724.815 391.758 722.607 392.655C720.399 393.552 717.834 394 714.912 394C711.25 394 707.964 393.214 705.055 391.641C702.159 390.068 699.867 387.755 698.179 384.7C696.503 381.646 695.666 377.909 695.666 373.49C695.666 369.045 696.523 365.302 698.237 362.261C699.951 359.206 702.263 356.899 705.172 355.34C708.081 353.767 711.328 352.981 714.912 352.981C717.432 352.981 719.75 353.325 721.867 354.014C723.984 354.703 725.841 355.71 727.438 357.036C729.036 358.348 730.321 359.967 731.296 361.89C732.27 363.814 732.86 366.017 733.068 368.499Z" fill="white"/>
<path d="M737.982 393.454V353.526H748.813V384.72H764.943V393.454H737.982Z" fill="white"/>
<path d="M780.153 353.526V393.454H769.321V353.526H780.153Z" fill="white"/>
<path d="M822.533 368.499H811.546C811.468 367.589 811.26 366.764 810.922 366.023C810.597 365.282 810.143 364.646 809.558 364.113C808.987 363.567 808.292 363.151 807.474 362.865C806.656 362.566 805.727 362.417 804.688 362.417C802.87 362.417 801.331 362.858 800.071 363.742C798.825 364.626 797.877 365.893 797.227 367.544C796.591 369.195 796.273 371.177 796.273 373.49C796.273 375.934 796.597 377.981 797.247 379.631C797.909 381.269 798.864 382.504 800.11 383.336C801.357 384.155 802.857 384.564 804.61 384.564C805.61 384.564 806.507 384.44 807.299 384.194C808.091 383.934 808.779 383.563 809.364 383.082C809.948 382.601 810.422 382.023 810.786 381.347C811.162 380.658 811.416 379.885 811.546 379.027L822.533 379.105C822.403 380.795 821.929 382.517 821.11 384.272C820.292 386.013 819.13 387.625 817.623 389.107C816.13 390.575 814.279 391.758 812.071 392.655C809.864 393.552 807.299 394 804.377 394C800.714 394 797.429 393.214 794.519 391.641C791.623 390.068 789.331 387.755 787.643 384.7C785.968 381.646 785.13 377.909 785.13 373.49C785.13 369.045 785.987 365.302 787.701 362.261C789.416 359.206 791.727 356.899 794.636 355.34C797.545 353.767 800.792 352.981 804.377 352.981C806.896 352.981 809.214 353.325 811.331 354.014C813.448 354.703 815.305 355.71 816.903 357.036C818.5 358.348 819.786 359.967 820.76 361.89C821.734 363.814 822.325 366.017 822.533 368.499Z" fill="white"/>
<path d="M827.446 393.454V353.526H838.278V369.669H838.823L850.823 353.526H863.446L849.966 371.307L863.758 393.454H850.823L841.862 378.481L838.278 383.16V393.454H827.446Z" fill="white"/>
<path d="M946.117 199.387C946.117 225.655 945.461 287.713 945.789 292.31C945.789 292.639 945.461 292.967 945.133 292.967H860.454C860.125 292.967 860.125 292.967 859.797 292.639C858.484 287.057 856.843 281.803 854.874 276.549C851.264 265.714 849.622 248.64 845.027 239.774C842.402 235.177 837.15 238.789 836.822 244.371C836.166 258.162 837.478 278.191 837.478 292.31C837.478 292.639 837.15 292.967 836.822 292.967H761.661C761.005 292.967 761.005 292.639 761.005 291.982C761.005 255.863 761.989 220.073 761.989 183.955C762.318 153.09 761.333 87.4196 761.333 87.4196C761.333 86.7629 761.661 86.4345 761.989 86.4345L844.043 86.7629C844.371 86.7629 844.699 86.7629 844.699 87.0912C849.294 102.524 852.905 130.105 858.484 144.553C859.469 147.179 861.766 148.164 863.736 147.508C866.033 146.851 867.018 144.224 867.346 141.597C868.659 127.807 868.002 101.867 868.002 87.4196C868.002 87.0912 868.331 86.7629 868.659 86.7629H946.117C946.446 86.7629 946.774 87.0912 946.774 87.4196C946.774 87.748 946.774 88.0763 946.774 88.4046C946.774 125.508 946.117 162.283 946.117 199.387Z" fill="white"/>
<path d="M750.065 291.981C750.065 273.835 750.313 255.782 750.559 237.817C750.805 219.828 751.05 201.926 751.05 183.955V183.838C751.213 168.533 751.05 144.505 750.845 124.222C750.742 114.099 750.63 104.936 750.543 98.3055C750.499 94.9913 750.462 92.3099 750.436 90.4575C750.423 89.5316 750.411 88.8122 750.404 88.3252C750.4 88.0823 750.398 87.8965 750.396 87.772C750.395 87.7098 750.394 87.6617 750.393 87.6304V87.4193C750.393 83.8436 752.91 75.4883 761.991 75.4883H762.012L762.033 75.491L844.087 75.817C844.211 75.8168 844.593 75.8185 845.011 75.8463C845.491 75.8783 846.619 75.9754 847.955 76.4209C849.354 76.8877 851.521 77.9215 853.278 80.1805C854.326 81.5291 854.938 82.9554 855.278 84.2956C855.895 86.3945 856.492 88.6857 857.076 91.1015C857.07 89.8224 857.063 88.5915 857.063 87.4193C857.063 83.696 858.813 80.8885 860.471 79.2293C862.129 77.57 864.938 75.817 868.66 75.817L868.659 86.7629L868.537 86.778C868.254 86.845 868.003 87.1321 868.002 87.4196L868.027 93.33C868.135 108.162 868.495 129.53 867.346 141.597C867.018 144.224 866.033 146.851 863.736 147.508C861.766 148.164 859.469 147.179 858.484 144.553C852.905 130.105 849.294 102.524 844.699 87.0912C844.699 86.8457 844.515 86.7828 844.285 86.7673L844.043 86.7629L761.989 86.4345C761.661 86.4345 761.333 86.7629 761.333 87.4196C761.333 87.4196 762.318 153.09 761.989 183.955L761.948 197.484C761.759 229.025 761.005 260.378 761.005 291.982L761.016 292.414C761.042 292.721 761.131 292.9 761.446 292.951L761.661 292.967H836.822C837.109 292.967 837.395 292.715 837.463 292.433L837.478 292.31C837.478 278.191 836.166 258.162 836.822 244.371C837.15 238.789 842.402 235.177 845.027 239.774C849.622 248.64 851.264 265.714 854.874 276.549L855.596 278.521C857.247 283.123 858.648 287.755 859.797 292.639C860.044 292.885 860.105 292.946 860.26 292.962L860.454 292.967H945.133L945.254 292.951C945.537 292.884 945.789 292.598 945.789 292.31C945.461 287.708 946.117 225.654 946.117 199.387C946.117 166.922 946.619 134.708 946.744 102.306L946.774 88.4046V87.4196C946.774 87.0912 946.446 86.7629 946.117 86.7629L946.117 75.817C949.839 75.817 952.645 77.5702 954.303 79.2293C955.962 80.8884 957.714 83.6956 957.714 87.4193V88.4053C957.714 107.014 957.55 125.532 957.386 143.993C957.222 162.471 957.057 180.892 957.057 199.387C957.057 212.566 956.894 234.705 956.771 254.045C956.71 263.732 956.659 272.72 956.643 279.569C956.636 282.996 956.635 285.865 956.649 288.008C956.655 289.08 956.666 289.945 956.678 290.594C956.69 291.223 956.701 291.491 956.702 291.529L956.729 291.92V292.31C956.729 296.034 954.979 298.843 953.32 300.502C951.662 302.161 948.855 303.912 945.134 303.912H860.455C860.445 303.912 860.29 303.913 860.126 303.909C859.956 303.906 859.604 303.897 859.17 303.853C858.153 303.751 856.749 303.473 855.233 302.715C853.905 302.051 853.014 301.27 852.674 300.965C852.483 300.792 852.329 300.642 852.25 300.564C852.17 300.486 852.09 300.406 852.06 300.377L849.862 298.175L849.148 295.145C848.918 294.164 848.67 293.195 848.417 292.232C848.417 292.258 848.419 292.284 848.419 292.31C848.419 296.033 846.667 298.843 845.008 300.502C843.35 302.161 840.543 303.912 836.822 303.912H761.662C760.75 303.912 758.902 303.825 756.838 302.907C754.395 301.821 752.461 299.937 751.301 297.616C750.339 295.691 750.166 293.958 750.113 293.322C750.057 292.65 750.065 292.003 750.065 291.981ZM946.117 75.817L946.117 86.7629H868.659L868.66 75.817H946.117Z" fill="black"/>
<path d="M685.406 86.7629H776.321C778.291 86.7629 779.932 88.4046 779.932 90.3747C777.634 122.553 779.604 225.327 779.932 243.386C780.26 258.818 781.245 273.923 782.557 289.355C782.557 291.325 780.916 292.967 778.947 292.967H686.063C685.406 292.967 684.75 292.31 684.75 291.654C687.047 280.161 686.063 221.058 685.734 203.656C685.406 178.044 684.421 100.882 684.421 88.0763C684.75 87.4196 685.078 87.0912 685.406 86.7629Z" fill="white"/>
<path d="M782.557 289.355C781.245 273.923 780.26 258.818 779.932 243.386C779.604 225.327 777.634 122.553 779.932 90.3747C779.932 88.4046 778.291 86.7629 776.321 86.7629L776.321 75.817C784.332 75.817 790.872 82.3599 790.872 90.3747V90.7648L790.846 91.1549C788.595 122.68 790.533 224.638 790.87 243.153L791.019 248.813C791.437 261.996 792.319 275.043 793.458 288.427L793.498 288.889V289.354C793.498 297.369 786.958 303.912 778.946 303.912H686.062C682.176 303.912 679.205 302.079 677.424 300.297C675.642 298.514 673.81 295.54 673.81 291.652V290.57L674.021 289.507C674.383 287.697 674.751 282.803 674.982 275.171C675.203 267.902 675.287 259.019 675.287 249.871C675.287 231.59 674.959 212.548 674.796 203.862V203.796C674.468 178.252 673.481 100.976 673.481 88.0767V85.4927L674.635 83.1813C675.77 80.9117 677.115 79.5779 677.669 79.0235L680.875 75.817H776.321L776.321 86.7629H685.406C685.078 87.0912 684.75 87.4196 684.421 88.0763L684.465 95.6682C684.657 119.366 685.447 181.246 685.734 203.656C686.063 221.059 687.047 280.158 684.75 291.654C684.75 292.31 685.406 292.967 686.063 292.967H778.947C780.916 292.967 782.557 291.325 782.557 289.355Z" fill="black"/>
<path d="M695.909 268.669C697.222 276.221 698.535 284.43 700.504 291.982C700.832 292.967 699.848 292.967 699.848 292.967H626.328C625.343 292.967 624.687 292.31 624.358 291.325C620.42 274.579 619.435 262.759 614.512 244.699C613.856 242.073 613.199 237.804 609.589 237.476C606.307 237.147 606.635 239.774 605.978 243.714C605.65 247.655 599.414 275.236 598.101 290.997C597.773 292.31 597.117 292.967 596.132 292.967H519.986C519.002 292.967 518.017 291.654 518.345 290.34C518.345 289.027 522.612 267.027 525.238 257.505C527.863 247.655 530.161 237.147 532.787 227.297C534.756 219.416 541.648 195.119 541.648 194.79C543.618 190.193 542.633 185.925 540.992 181.328C538.366 174.104 535.741 167.209 533.443 159.657C531.474 151.448 529.176 143.239 527.535 135.03C523.925 119.926 520.643 104.822 518.674 89.3897C518.345 88.0763 519.33 86.4345 520.315 86.4345H594.163C595.147 86.4345 595.804 87.4196 596.132 88.4046C600.071 104.494 605.978 134.374 606.635 136.672C607.291 139.299 607.619 142.254 609.589 142.254C612.543 142.254 611.886 137.986 612.871 135.03C613.527 131.747 618.122 104.165 621.076 88.4046C621.404 87.4196 622.061 86.7629 623.046 86.7629H698.207C699.191 86.7629 700.176 87.748 699.848 89.3897C698.535 105.151 694.596 120.583 690.001 135.03C688.032 142.254 677.857 175.746 677.201 178.701C675.56 184.611 677.857 190.85 679.17 196.432C681.468 204.969 683.765 213.506 685.734 222.043C689.345 237.476 692.955 252.908 695.909 268.669Z" fill="white"/>
<path d="M520.315 86.4345L520.131 86.452C519.212 86.6366 518.367 88.1584 518.674 89.3897C520.643 104.822 523.925 119.926 527.535 135.03C529.176 143.239 531.474 151.448 533.443 159.657C535.741 167.209 538.366 174.104 540.992 181.328C542.633 185.925 543.618 190.193 541.648 194.79C541.644 195.134 534.755 219.419 532.787 227.297C530.161 237.147 527.863 247.655 525.238 257.505C522.612 267.027 518.345 289.027 518.345 290.34C518.017 291.654 519.002 292.967 519.986 292.967H596.132C596.993 292.967 597.605 292.465 597.964 291.46L598.101 290.997C599.414 275.236 605.65 247.655 605.978 243.714C606.635 239.774 606.307 237.147 609.589 237.476C613.199 237.804 613.856 242.073 614.512 244.699C619.435 262.759 620.42 274.579 624.358 291.325C624.687 292.31 625.343 292.967 626.328 292.967H699.848L699.847 303.912H626.327C619.052 303.912 615.226 298.529 613.979 294.787L613.822 294.316L613.709 293.833C612.471 288.565 611.512 283.744 610.651 279.171C609.904 283.854 609.306 288.268 609.003 291.906L608.931 292.791L608.715 293.651C608.276 295.405 607.329 297.982 605.098 300.214C602.584 302.729 599.33 303.912 596.132 303.912H519.986C514.679 303.912 511.187 300.646 509.569 298.218C507.953 295.791 506.951 292.492 507.489 288.924C507.519 288.638 507.546 288.438 507.553 288.39C507.604 288.014 507.669 287.597 507.737 287.179C507.876 286.33 508.066 285.244 508.293 284.013C508.749 281.536 509.38 278.297 510.088 274.818C511.476 267.997 513.248 259.848 514.666 254.686L515.611 251.065C516.545 247.413 517.451 243.661 518.378 239.826C519.604 234.761 520.866 229.547 522.217 224.478C523.262 220.317 525.487 212.235 527.414 205.287C528.405 201.715 529.321 198.426 529.997 195.98C530.29 194.923 530.529 194.046 530.708 193.39V192.543L531.592 190.478C531.772 190.057 531.84 189.699 531.782 189.067C531.705 188.244 531.424 187.074 530.711 185.069L528.763 179.744C526.794 174.36 524.783 168.777 522.978 162.843L522.882 162.53L522.804 162.212C520.982 154.615 518.523 145.72 516.835 137.311C513.244 122.273 509.897 106.9 507.86 91.0721C507.238 87.4483 508.238 84.2035 509.503 81.9896C510.551 80.1536 513.929 75.4883 520.315 75.4883L520.315 86.4345ZM698.207 75.817C707.015 75.8172 711.597 83.7584 710.715 90.6499C709.285 107.355 705.15 123.46 700.501 138.109C699.422 142.037 696.386 152.214 693.594 161.592C692.157 166.419 690.767 171.087 689.697 174.731C689.162 176.555 688.712 178.1 688.38 179.268C688.019 180.537 687.888 181.049 687.881 181.075L687.819 181.355L687.742 181.63C687.54 182.357 687.455 183.556 687.849 185.769C688.318 188.408 688.886 190.009 689.753 193.655C692.033 202.127 694.374 210.822 696.388 219.55L699.088 231.147C701.331 240.858 703.529 250.685 705.504 260.653L706.663 266.652L706.674 266.724L706.687 266.794C708.037 274.558 709.255 282.153 711.065 289.122C711.548 290.861 711.819 293.311 710.918 296.013C709.869 299.162 707.737 301.143 705.929 302.229C704.269 303.225 702.729 303.584 701.898 303.73C701.429 303.813 701.017 303.856 700.688 303.88C700.521 303.892 700.365 303.902 700.226 303.907C700.157 303.909 700.091 303.908 700.029 303.909C699.997 303.91 699.965 303.912 699.935 303.912H699.858C699.852 303.905 699.848 303.629 699.848 292.967C699.848 292.967 700.832 292.967 700.504 291.982C699.027 286.318 697.919 280.284 696.903 274.436L695.909 268.669C692.955 252.908 689.345 237.476 685.734 222.043C683.765 213.506 681.468 204.969 679.17 196.432C677.898 191.024 675.701 184.999 677.058 179.255L677.201 178.701C677.857 175.746 688.032 142.254 690.001 135.03C694.596 120.583 698.535 105.151 699.848 89.3897C700.155 87.8514 699.309 86.8898 698.391 86.7753L698.207 86.7629L698.207 75.817ZM594.163 75.4883C598.694 75.4884 601.862 77.8571 603.57 79.7797C604.99 81.3779 605.825 83.0809 606.319 84.4025L606.511 84.9449L606.653 85.3671L606.76 85.8C607.409 88.4514 608.099 91.4587 608.816 94.6394C609.338 91.7311 609.844 88.9395 610.323 86.3879L610.462 85.653L610.697 84.9423C611.944 81.2003 615.77 75.8174 623.045 75.817L623.046 86.7629C622.061 86.7629 621.404 87.4196 621.076 88.4046L619.904 94.7997C617.036 110.682 613.445 132.157 612.871 135.03C612.861 135.059 612.853 135.088 612.844 135.117L609.588 135.932L609.589 142.254C607.619 142.254 607.291 139.299 606.635 136.672C606.019 134.514 600.789 108.119 596.893 91.5718L596.132 88.4046C595.824 87.4816 595.229 86.5592 594.345 86.4467L594.163 86.4345L594.163 75.4883ZM612.844 135.117C611.9 138.068 612.514 142.254 609.589 142.254L609.588 135.932L612.844 135.117ZM698.207 75.817L698.207 86.7629H623.046L623.045 75.817H698.207ZM594.163 75.4883L594.163 86.4345H520.315L520.315 75.4883H594.163Z" fill="black"/>
<path d="M517.908 288.042C505.436 292.967 490.994 292.967 486.071 292.967H430.603C413.207 292.967 392.202 284.758 382.355 270.639C371.524 256.192 370.211 232.222 370.211 220.073V88.733C370.211 87.4196 370.868 86.4345 371.852 86.4345H447.67C448.655 86.4345 449.311 87.4196 449.311 88.733C449.311 100.882 449.311 113.031 449.639 125.18C449.639 137.329 448.983 179.358 449.639 188.223C450.296 197.089 450.952 207.596 455.219 211.208C459.486 214.82 464.737 212.521 466.05 210.879C470.973 204.312 469.66 194.133 469.988 185.268C470.317 176.403 470.317 130.762 470.645 116.971C470.973 107.777 470.973 98.2551 470.645 89.0613C470.317 87.748 471.301 86.7629 472.286 86.7629H552.37C553.355 86.7629 554.011 87.748 554.011 88.733V213.834C554.011 231.565 554.011 253.565 543.18 267.356C535.631 276.878 527.426 284.43 517.908 288.042Z" fill="white"/>
<path d="M554.011 213.834V88.733C554.011 87.748 553.355 86.7629 552.37 86.7629L552.37 75.817C556.847 75.817 560.241 78.1442 562.196 80.6588C564.059 83.0549 564.953 85.9447 564.953 88.734V213.835C564.953 222.565 564.97 233.283 563.486 243.626C562.008 253.931 558.896 265.06 551.782 274.118L551.769 274.137L551.753 274.158C543.738 284.267 534.076 293.567 521.923 298.22C521.892 298.232 521.862 298.246 521.832 298.258C521.817 298.263 521.801 298.271 521.787 298.277L521.784 298.274C507.181 303.999 490.874 303.912 486.07 303.912H430.604C420.302 303.912 409.203 301.509 399.235 297.114C389.362 292.761 379.851 286.114 373.468 277.022C366.664 267.856 363.256 256.407 361.456 246.44C359.613 236.231 359.272 226.484 359.272 220.074V88.734C359.272 86.3869 359.84 83.4717 361.7 80.8138C363.707 77.9447 367.256 75.4884 371.852 75.4883L371.852 86.4345C370.868 86.4345 370.211 87.4196 370.211 88.733V220.073L370.228 222.484C370.412 235.181 372.202 257.095 382.355 270.639C391.894 284.317 411.905 292.448 428.961 292.943L430.603 292.967H486.071C490.994 292.967 505.436 292.967 517.908 288.042C526.831 284.656 534.601 277.807 541.758 269.118L543.18 267.356C552.656 255.289 553.843 236.937 553.991 220.659L554.011 213.834ZM447.669 75.4883C452.265 75.4883 455.813 77.945 457.821 80.8138C458.944 82.4184 459.593 84.1179 459.934 85.7279C461.22 80.0228 466.393 75.8175 472.285 75.817L472.286 86.7629C471.301 86.7629 470.317 87.748 470.645 89.0613C470.973 98.2551 470.973 107.777 470.645 116.971C470.317 130.762 470.317 176.403 469.988 185.268C469.66 194.133 470.973 204.312 466.05 210.879C464.778 212.47 459.809 214.677 455.62 211.529L455.219 211.208C451.485 208.047 450.517 199.608 449.894 191.608L449.639 188.223C449.065 180.464 449.497 147.316 449.613 131.012L449.639 125.18C449.393 116.069 449.332 106.957 449.317 97.8459L449.311 88.733C449.311 87.4196 448.655 86.4345 447.67 86.4345L447.669 75.4883ZM552.37 75.817L552.37 86.7629H472.286L472.285 75.817H552.37ZM447.669 75.4883L447.67 86.4345H371.852L371.852 75.4883H447.669Z" fill="black"/>
<path d="M374.588 230.252C382.465 246.67 391.655 283.445 392.968 289.355C393.296 291.325 392.311 292.967 390.998 292.967H317.807C316.822 292.967 316.165 292.31 315.837 291.325C314.196 284.43 301.724 249.625 297.129 244.371C295.488 242.401 290.565 243.714 290.565 246.998C289.58 260.789 289.252 275.893 289.908 290.012C289.908 291.654 288.924 292.967 287.939 292.967H211.137C209.824 292.967 209.168 291.654 209.168 290.012V262.43C209.168 256.848 209.496 198.402 209.168 193.477V152.761C209.496 131.747 210.152 109.419 209.496 88.4046C209.496 87.4196 209.496 86.4345 210.481 86.4345H349.643C357.192 86.4345 365.398 90.7031 371.962 96.6134C379.839 103.18 384.762 112.703 386.731 117.299C392.639 130.105 392.968 142.911 392.968 160.313C392.968 172.462 390.67 190.193 387.388 198.074C384.106 205.954 375.244 218.431 374.916 219.088C374.588 219.088 374.588 219.416 374.588 219.416C371.305 222.372 372.618 225.983 374.588 230.252ZM304.35 173.776C305.006 164.582 304.678 157.358 304.022 150.135C302.709 138.642 298.442 136.344 294.175 136.344C291.549 136.344 289.252 138.314 288.924 140.284C288.924 142.911 288.924 146.851 288.924 150.791C288.924 158.015 288.596 171.477 288.924 179.358C289.252 182.313 289.252 187.238 294.175 187.566C298.77 187.895 303.693 183.955 304.35 173.776Z" fill="white"/>
<path d="M209.198 290.61C209.332 291.865 209.899 292.821 210.9 292.951L211.137 292.967H287.939L288.124 292.951C289.043 292.8 289.908 291.551 289.908 290.012C289.304 277.013 289.54 263.179 290.349 250.304L293.856 247.234L299.185 247.613C304.672 257.888 314.401 285.292 315.837 291.325C316.124 292.186 316.663 292.798 317.452 292.938L317.807 292.967H390.998C392.311 292.967 393.296 291.325 392.968 289.355C391.654 283.441 382.464 246.669 374.588 230.252C372.68 226.117 371.388 222.597 374.293 219.695L374.588 219.416C374.588 219.416 374.588 219.088 374.916 219.088C375.223 218.472 383.032 207.467 386.711 199.6L387.388 198.074C390.67 190.193 392.968 172.462 392.968 160.313C392.968 142.911 392.639 130.105 386.731 117.299C384.762 112.703 379.839 103.18 371.962 96.6134C365.398 90.7031 357.192 86.4345 349.643 86.4345L349.643 75.4883C360.865 75.4883 371.494 81.529 379.093 88.3145C388.813 96.4748 394.527 107.729 396.765 112.938C403.714 128.145 403.907 143.222 403.907 160.312C403.907 166.981 403.285 174.972 402.24 182.333C401.229 189.455 399.685 197.002 397.486 202.283C395.446 207.182 391.945 212.973 389.27 217.172C387.871 219.368 386.577 221.315 385.629 222.73C385.595 222.781 385.56 222.831 385.528 222.88V224.291L384.371 225.33C384.411 225.417 384.449 225.508 384.491 225.6C388.859 234.733 393.325 248.792 396.754 260.717C399.375 269.834 401.541 278.24 402.761 283.23L403.648 286.981L403.712 287.267L403.76 287.556C404.282 290.688 403.873 294.172 402.133 297.266C400.417 300.319 396.68 303.912 390.998 303.912H317.807C310.531 303.912 306.706 298.529 305.459 294.787L305.306 294.33L305.194 293.859C304.744 291.968 302.95 286.462 300.544 279.74C300.592 283.032 300.689 286.297 300.838 289.504L300.849 289.758V290.012C300.849 292.945 299.986 295.88 298.287 298.335C296.787 300.502 293.372 303.912 287.94 303.912H211.137C206.133 303.912 202.357 301.114 200.344 297.841C198.606 295.015 198.228 292.069 198.228 290.012V262.43C198.228 259.631 198.31 243.529 198.351 227.679C198.372 219.722 198.38 211.801 198.365 205.57C198.357 202.452 198.344 199.779 198.322 197.743C198.311 196.724 198.299 195.886 198.284 195.245C198.277 194.925 198.27 194.671 198.263 194.478C198.257 194.299 198.253 194.218 198.252 194.205L198.228 193.842V152.59C198.56 131.352 199.208 109.425 198.562 88.7474L198.557 88.5763V88.4053C198.557 88.237 198.55 87.6145 198.594 86.9544C198.636 86.321 198.755 85.0494 199.241 83.5902C199.748 82.0666 200.843 79.795 203.194 77.9653C205.64 76.0621 208.342 75.4884 210.48 75.4883L210.481 86.4345C209.496 86.4345 209.496 87.4196 209.496 88.4046C210.152 109.419 209.496 131.747 209.168 152.761V193.477C209.496 198.402 209.168 256.848 209.168 262.43V290.012L209.198 290.61ZM290.565 246.998C290.565 243.714 295.488 242.401 297.129 244.371L290.349 250.304C290.419 249.195 290.487 248.092 290.565 246.998ZM293.856 247.234L297.129 244.371C297.703 245.028 298.401 246.146 299.185 247.613L293.856 247.234ZM294.175 136.344C298.442 136.344 302.709 138.642 304.022 150.135C304.678 157.358 305.006 164.582 304.35 173.776L304.275 174.712C303.386 184.196 298.626 187.884 294.175 187.566C289.252 187.238 289.252 182.313 288.924 179.358C288.678 173.447 288.8 164.397 288.877 157.194L288.924 150.791V140.284C289.252 138.314 291.549 136.344 294.175 136.344ZM349.643 75.4883L349.643 86.4345H210.481L210.48 75.4883H349.643Z" fill="black"/>
<path d="M262.338 147.179C263.323 154.403 262.01 181.328 260.697 188.223C258.072 199.715 253.805 213.178 242.974 224.67C231.815 236.491 223.281 240.103 218.03 243.058C207.527 249.296 178.644 252.908 171.423 252.908C161.905 252.908 159.936 255.863 158.951 265.385C158.623 270.967 158.295 281.803 158.623 289.027C158.623 291.325 157.31 293.295 155.341 293.295H80.1798C78.5387 293.295 77.2258 291.325 77.2258 289.355C77.2258 289.355 78.5387 239.446 78.5387 221.058C78.5387 183.955 77.8823 147.179 77.5541 110.076C77.5541 102.852 77.5541 95.6284 77.5541 88.4046C77.5541 87.0912 77.8823 86.7629 79.1951 86.7629H205.886C214.091 86.7629 224.922 87.7479 240.02 99.5685C254.79 111.061 260.697 133.389 262.338 147.179ZM179.957 149.478C179.629 144.881 179.957 134.045 170.767 134.045C161.249 134.045 160.92 145.538 160.592 148.821C160.264 154.731 159.936 176.403 159.936 181.328C160.264 186.253 160.264 197.417 169.782 197.417C179.3 197.417 179.3 188.88 179.629 184.94C179.957 178.044 180.285 154.403 179.957 149.478Z" fill="white"/>
<path d="M158.623 289.027C158.295 281.803 158.623 270.967 158.951 265.385C159.874 256.458 161.663 253.303 169.726 252.944L171.423 252.908C178.644 252.908 207.527 249.296 218.03 243.058C223.117 240.195 231.284 236.716 241.934 225.755L242.974 224.67C253.128 213.896 257.513 201.391 260.185 190.4L260.697 188.223C262.01 181.328 263.323 154.403 262.338 147.179C260.749 133.82 255.154 112.449 241.379 100.678L240.02 99.5685C225.867 88.4875 215.463 86.9296 207.457 86.778L205.886 86.7629L205.886 75.8169C210.515 75.817 216.488 76.097 223.574 78.27C230.633 80.435 238.287 84.3166 246.737 90.9278C256.2 98.2911 262.317 108.672 266.248 118.413C270.183 128.162 272.257 138.09 273.177 145.701C273.826 150.467 273.67 160.029 273.31 168.299C272.946 176.69 272.271 185.924 271.443 190.272L271.406 190.467L271.363 190.662C268.591 202.795 263.772 218.556 250.933 232.179L250.927 232.184C238.407 245.447 228.269 249.854 223.395 252.597L223.392 252.594C219.569 254.821 214.806 256.489 210.309 257.762C205.557 259.106 200.361 260.215 195.416 261.097C185.729 262.824 175.974 263.854 171.422 263.854C170.939 263.854 170.527 263.865 170.177 263.881C170.074 264.493 169.967 265.275 169.86 266.278C169.547 271.748 169.253 281.945 169.552 288.529L169.563 288.777V289.026C169.563 292.141 168.692 295.576 166.529 298.514C164.253 301.604 160.367 304.241 155.34 304.241H80.1803C74.7213 304.241 71.0467 301.004 69.2185 298.472C67.3296 295.855 66.2857 292.624 66.2857 289.354V289.21L66.2884 289.068L77.2258 289.355C77.2258 291.202 78.3796 293.048 79.8758 293.272L80.1798 293.295H155.341L155.703 293.272C157.469 293.046 158.623 291.181 158.623 289.027ZM67.5972 221.057C67.5972 184.01 66.9437 147.415 66.6143 110.172V88.4053C66.6143 87.8269 66.4206 83.079 70.1453 79.3522C73.8697 75.6262 78.6146 75.8169 79.1947 75.8169L79.1951 86.7629C77.8823 86.7629 77.5541 87.0912 77.5541 88.4046V110.076C77.8823 147.179 78.5387 183.955 78.5387 221.058C78.5387 239.402 77.2321 289.116 77.2258 289.355L66.2884 289.068V289.058C66.2885 289.052 66.2908 289.042 66.2911 289.031C66.2917 289.007 66.2925 288.971 66.2937 288.924C66.2962 288.83 66.2996 288.688 66.3044 288.505C66.314 288.136 66.3266 287.591 66.3445 286.893C66.3803 285.495 66.4326 283.478 66.4941 280.999C66.617 276.039 66.7816 269.234 66.9455 261.858C67.2743 247.056 67.5972 230.107 67.5972 221.057ZM170.767 134.045C179.957 134.045 179.629 144.881 179.957 149.478C180.285 154.403 179.957 178.044 179.629 184.94C179.3 188.88 179.3 197.417 169.782 197.417L168.917 197.385C160.264 196.725 160.254 186.099 159.936 181.328C159.936 176.403 160.264 154.731 160.592 148.821C160.92 145.538 161.249 134.045 170.767 134.045ZM205.886 75.8169L205.886 86.7629H79.1951L79.1947 75.8169H205.886Z" fill="black"/>
</svg>
